<?xml version="1.0" encoding="UTF-8"?>
<!DOCTYPE svg PUBLIC "-//W3C//DTD SVG 1.1//EN" "http://www.w3.org/Graphics/SVG/1.1/DTD/svg11.dtd">
<svg xmlns="http://www.w3.org/2000/svg" version="1.1" width="512px" height="512px" style="shape-rendering:geometricPrecision; text-rendering:geometricPrecision; image-rendering:optimizeQuality; fill-rule:evenodd; clip-rule:evenodd" xmlns:xlink="http://www.w3.org/1999/xlink">
<g><path style="opacity:0.999" fill="#f28dc5" d="M 419.5,0.5 C 425.114,2.06603 429.947,5.06603 434,9.5C 451.459,30.6277 469.292,51.461 487.5,72C 494.826,72.4997 502.159,72.6663 509.5,72.5C 510.167,72.5 510.5,72.8333 510.5,73.5C 340.5,73.5 170.5,73.5 0.5,73.5C 19.9167,49.9103 39.9167,26.7437 60.5,4C 62.7173,2.72457 65.0506,1.72457 67.5,1C 184.833,0.500001 302.166,0.333335 419.5,0.5 Z"/></g>
<g><path style="opacity:1" fill="#ee74b8" d="M 419.5,0.5 C 427.507,0.333622 435.507,0.500289 443.5,1C 445.949,1.72457 448.283,2.72457 450.5,4C 470.773,26.4301 490.44,49.2635 509.5,72.5C 502.159,72.6663 494.826,72.4997 487.5,72C 469.292,51.461 451.459,30.6277 434,9.5C 429.947,5.06603 425.114,2.06603 419.5,0.5 Z"/></g>
<g><path style="opacity:0.999" fill="#c9effe" d="M 0.5,73.5 C 170.5,73.5 340.5,73.5 510.5,73.5C 510.667,86.1711 510.5,98.8377 510,111.5C 509.167,113.667 507.667,115.167 505.5,116C 502.854,116.497 500.187,116.664 497.5,116.5C 497.167,116.5 496.833,116.5 496.5,116.5C 489.167,116.5 481.833,116.5 474.5,116.5C 455.167,116.5 435.833,116.5 416.5,116.5C 409.167,116.5 401.833,116.5 394.5,116.5C 375.167,116.5 355.833,116.5 336.5,116.5C 329.167,116.5 321.833,116.5 314.5,116.5C 294.833,116.5 275.167,116.5 255.5,116.5C 248.167,116.5 240.833,116.5 233.5,116.5C 214.167,116.5 194.833,116.5 175.5,116.5C 168.167,116.5 160.833,116.5 153.5,116.5C 134.167,116.5 114.833,116.5 95.5,116.5C 95.1667,116.5 94.8333,116.5 94.5,116.5C 87.5,116.5 80.5,116.5 73.5,116.5C 53.8333,116.5 34.1667,116.5 14.5,116.5C 14.1667,116.5 13.8333,116.5 13.5,116.5C 10.8127,116.664 8.14603,116.497 5.5,116C 3.33333,115.167 1.83333,113.667 1,111.5C 0.500115,98.8377 0.333449,86.1711 0.5,73.5 Z"/></g>
<g><path style="opacity:1" fill="#f28dc5" d="M 95.5,116.5 C 114.833,116.5 134.167,116.5 153.5,116.5C 153.5,139.167 153.5,161.833 153.5,184.5C 134.167,184.5 114.833,184.5 95.5,184.5C 95.5,161.833 95.5,139.167 95.5,116.5 Z"/></g>
<g><path style="opacity:1" fill="#ee74b8" d="M 153.5,116.5 C 160.833,116.5 168.167,116.5 175.5,116.5C 175.5,139.167 175.5,161.833 175.5,184.5C 175.5,185.833 175.5,187.167 175.5,188.5C 175.167,188.5 174.833,188.5 174.5,188.5C 174.5,187.167 174.5,185.833 174.5,184.5C 167.5,184.5 160.5,184.5 153.5,184.5C 153.5,161.833 153.5,139.167 153.5,116.5 Z"/></g>
<g><path style="opacity:1" fill="#fecd6b" d="M 175.5,116.5 C 194.833,116.5 214.167,116.5 233.5,116.5C 233.5,139.167 233.5,161.833 233.5,184.5C 214.167,184.5 194.833,184.5 175.5,184.5C 175.5,161.833 175.5,139.167 175.5,116.5 Z"/></g>
<g><path style="opacity:1" fill="#fec143" d="M 233.5,116.5 C 240.833,116.5 248.167,116.5 255.5,116.5C 255.5,139.167 255.5,161.833 255.5,184.5C 248.167,184.5 240.833,184.5 233.5,184.5C 233.5,161.833 233.5,139.167 233.5,116.5 Z"/></g>
<g><path style="opacity:1" fill="#f28cc4" d="M 255.5,116.5 C 275.167,116.5 294.833,116.5 314.5,116.5C 314.5,139.167 314.5,161.833 314.5,184.5C 294.833,184.5 275.167,184.5 255.5,184.5C 255.5,161.833 255.5,139.167 255.5,116.5 Z"/></g>
<g><path style="opacity:1" fill="#ee76b7" d="M 314.5,116.5 C 321.833,116.5 329.167,116.5 336.5,116.5C 336.5,139.167 336.5,161.833 336.5,184.5C 336.5,185.833 336.5,187.167 336.5,188.5C 336.167,188.5 335.833,188.5 335.5,188.5C 335.5,187.167 335.5,185.833 335.5,184.5C 328.5,184.5 321.5,184.5 314.5,184.5C 314.5,161.833 314.5,139.167 314.5,116.5 Z"/></g>
<g><path style="opacity:1" fill="#fecc6b" d="M 336.5,116.5 C 355.833,116.5 375.167,116.5 394.5,116.5C 394.5,139.167 394.5,161.833 394.5,184.5C 375.167,184.5 355.833,184.5 336.5,184.5C 336.5,161.833 336.5,139.167 336.5,116.5 Z"/></g>
<g><path style="opacity:1" fill="#fec144" d="M 394.5,116.5 C 401.833,116.5 409.167,116.5 416.5,116.5C 416.5,139.167 416.5,161.833 416.5,184.5C 409.167,184.5 401.833,184.5 394.5,184.5C 394.5,161.833 394.5,139.167 394.5,116.5 Z"/></g>
<g><path style="opacity:1" fill="#f28dc5" d="M 416.5,116.5 C 435.833,116.5 455.167,116.5 474.5,116.5C 474.5,139.167 474.5,161.833 474.5,184.5C 455.167,184.5 435.833,184.5 416.5,184.5C 416.5,161.833 416.5,139.167 416.5,116.5 Z"/></g>
<g><path style="opacity:1" fill="#ee74b8" d="M 474.5,116.5 C 481.833,116.5 489.167,116.5 496.5,116.5C 496.5,139.167 496.5,161.833 496.5,184.5C 489.167,184.5 481.833,184.5 474.5,184.5C 474.5,161.833 474.5,139.167 474.5,116.5 Z"/></g>
<g><path style="opacity:1" fill="#e859ab" d="M 95.5,184.5 C 114.833,184.5 134.167,184.5 153.5,184.5C 152.022,202.987 142.689,215.487 125.5,222C 126.056,222.383 126.389,222.883 126.5,223.5C 106.845,217.851 96.5121,204.851 95.5,184.5 Z"/></g>
<g><path style="opacity:1" fill="#e23f9d" d="M 153.5,184.5 C 160.5,184.5 167.5,184.5 174.5,184.5C 174.5,185.833 174.5,187.167 174.5,188.5C 172.456,204.721 163.789,215.888 148.5,222C 141.27,224.492 133.936,224.992 126.5,223.5C 126.389,222.883 126.056,222.383 125.5,222C 142.689,215.487 152.022,202.987 153.5,184.5 Z"/></g>
<g><path style="opacity:1" fill="#feaa02" d="M 175.5,184.5 C 194.833,184.5 214.167,184.5 233.5,184.5C 231.846,202.786 222.846,215.786 206.5,223.5C 188.715,218.384 178.381,206.717 175.5,188.5C 175.5,187.167 175.5,185.833 175.5,184.5 Z"/></g>
<g><path style="opacity:1" fill="#fe9604" d="M 233.5,184.5 C 240.833,184.5 248.167,184.5 255.5,184.5C 255.5,185.833 255.5,187.167 255.5,188.5C 252.286,207.548 241.286,219.382 222.5,224C 217.115,224.733 211.782,224.567 206.5,223.5C 222.846,215.786 231.846,202.786 233.5,184.5 Z"/></g>
<g><path style="opacity:1" fill="#e859ab" d="M 255.5,184.5 C 275.167,184.5 294.833,184.5 314.5,184.5C 313.036,202.947 303.703,215.447 286.5,222C 287.056,222.383 287.389,222.883 287.5,223.5C 269.257,218.633 258.59,206.966 255.5,188.5C 255.5,187.167 255.5,185.833 255.5,184.5 Z"/></g>
<g><path style="opacity:1" fill="#e23f9e" d="M 314.5,184.5 C 321.5,184.5 328.5,184.5 335.5,184.5C 335.5,185.833 335.5,187.167 335.5,188.5C 331.303,210.859 317.803,222.859 295,224.5C 292.449,224.375 289.949,224.042 287.5,223.5C 287.389,222.883 287.056,222.383 286.5,222C 303.703,215.447 313.036,202.947 314.5,184.5 Z"/></g>
<g><path style="opacity:1" fill="#feaa01" d="M 336.5,184.5 C 355.833,184.5 375.167,184.5 394.5,184.5C 392.958,201.941 384.291,214.274 368.5,221.5C 367.702,221.957 367.369,222.624 367.5,223.5C 349.715,218.384 339.381,206.717 336.5,188.5C 336.5,187.167 336.5,185.833 336.5,184.5 Z"/></g>
<g><path style="opacity:1" fill="#fe9606" d="M 394.5,184.5 C 401.833,184.5 409.167,184.5 416.5,184.5C 416.5,185.833 416.5,187.167 416.5,188.5C 410.515,214.467 394.182,226.134 367.5,223.5C 367.369,222.624 367.702,221.957 368.5,221.5C 384.291,214.274 392.958,201.941 394.5,184.5 Z"/></g>
<g><path style="opacity:1" fill="#e859ab" d="M 416.5,184.5 C 435.833,184.5 455.167,184.5 474.5,184.5C 473.901,202.024 465.568,214.357 449.5,221.5C 448.702,221.957 448.369,222.624 448.5,223.5C 430.158,218.825 419.491,207.159 416.5,188.5C 416.5,187.167 416.5,185.833 416.5,184.5 Z"/></g>
<g><path style="opacity:1" fill="#e23f9d" d="M 474.5,184.5 C 481.833,184.5 489.167,184.5 496.5,184.5C 495.758,200.67 488.425,212.67 474.5,220.5C 466.107,224.114 457.44,225.114 448.5,223.5C 448.369,222.624 448.702,221.957 449.5,221.5C 465.568,214.357 473.901,202.024 474.5,184.5 Z"/></g>
<g><path style="opacity:1" fill="#ecebef" d="M 13.5,116.5 C 13.8333,116.5 14.1667,116.5 14.5,116.5C 14.5,139.167 14.5,161.833 14.5,184.5C 15.1297,199.602 21.7963,211.102 34.5,219C 38.3299,220.998 42.3299,222.498 46.5,223.5C 67.3172,226.175 82.4839,218.175 92,199.5C 93.8947,194.675 94.728,189.675 94.5,184.5C 94.5,161.833 94.5,139.167 94.5,116.5C 94.8333,116.5 95.1667,116.5 95.5,116.5C 95.5,139.167 95.5,161.833 95.5,184.5C 96.5121,204.851 106.845,217.851 126.5,223.5C 133.936,224.992 141.27,224.492 148.5,222C 163.789,215.888 172.456,204.721 174.5,188.5C 174.833,188.5 175.167,188.5 175.5,188.5C 178.381,206.717 188.715,218.384 206.5,223.5C 211.782,224.567 217.115,224.733 222.5,224C 241.286,219.382 252.286,207.548 255.5,188.5C 258.59,206.966 269.257,218.633 287.5,223.5C 289.949,224.042 292.449,224.375 295,224.5C 317.803,222.859 331.303,210.859 335.5,188.5C 335.833,188.5 336.167,188.5 336.5,188.5C 339.381,206.717 349.715,218.384 367.5,223.5C 394.182,226.134 410.515,214.467 416.5,188.5C 419.491,207.159 430.158,218.825 448.5,223.5C 457.44,225.114 466.107,224.114 474.5,220.5C 474.5,230.833 474.5,241.167 474.5,251.5C 320.833,251.5 167.167,251.5 13.5,251.5C 13.5,206.5 13.5,161.5 13.5,116.5 Z"/></g>
<g><path style="opacity:1" fill="#fe9604" d="M 73.5,184.5 C 80.5,184.5 87.5,184.5 94.5,184.5C 94.728,189.675 93.8947,194.675 92,199.5C 82.4839,218.175 67.3172,226.175 46.5,223.5C 46.3691,222.624 46.7025,221.957 47.5,221.5C 63.7905,214.604 72.4572,202.271 73.5,184.5 Z"/></g>
<g><path style="opacity:1" fill="#feaa02" d="M 14.5,184.5 C 34.1667,184.5 53.8333,184.5 73.5,184.5C 72.4572,202.271 63.7905,214.604 47.5,221.5C 46.7025,221.957 46.3691,222.624 46.5,223.5C 42.3299,222.498 38.3299,220.998 34.5,219C 21.7963,211.102 15.1297,199.602 14.5,184.5 Z"/></g>
<g><path style="opacity:1" fill="#ffc043" d="M 73.5,116.5 C 80.5,116.5 87.5,116.5 94.5,116.5C 94.5,139.167 94.5,161.833 94.5,184.5C 87.5,184.5 80.5,184.5 73.5,184.5C 73.5,161.833 73.5,139.167 73.5,116.5 Z"/></g>
<g><path style="opacity:1" fill="#fecc6a" d="M 14.5,116.5 C 34.1667,116.5 53.8333,116.5 73.5,116.5C 73.5,139.167 73.5,161.833 73.5,184.5C 53.8333,184.5 34.1667,184.5 14.5,184.5C 14.5,161.833 14.5,139.167 14.5,116.5 Z"/></g>
<g><path style="opacity:1" fill="#d7d1d9" d="M 496.5,116.5 C 496.833,116.5 497.167,116.5 497.5,116.5C 497.5,161.5 497.5,206.5 497.5,251.5C 489.833,251.5 482.167,251.5 474.5,251.5C 474.5,241.167 474.5,230.833 474.5,220.5C 488.425,212.67 495.758,200.67 496.5,184.5C 496.5,161.833 496.5,139.167 496.5,116.5 Z"/></g>
<g><path style="opacity:1" fill="#f6a8d3" d="M 13.5,251.5 C 167.167,251.5 320.833,251.5 474.5,251.5C 474.5,325.167 474.5,398.833 474.5,472.5C 378.833,472.5 283.167,472.5 187.5,472.5C 187.667,430.832 187.5,389.165 187,347.5C 179.205,308.354 155.372,288.021 115.5,286.5C 79.5568,289.938 57.3901,309.271 49,344.5C 48.5,386.832 48.3333,429.165 48.5,471.5C 48.5,471.833 48.5,472.167 48.5,472.5C 36.8333,472.5 25.1667,472.5 13.5,472.5C 13.5,398.833 13.5,325.167 13.5,251.5 Z"/></g>
<g><path style="opacity:1" fill="#f38dc5" d="M 474.5,251.5 C 482.167,251.5 489.833,251.5 497.5,251.5C 497.5,325.167 497.5,398.833 497.5,472.5C 493.167,472.5 488.833,472.5 484.5,472.5C 481.167,472.5 477.833,472.5 474.5,472.5C 474.5,398.833 474.5,325.167 474.5,251.5 Z"/></g>
<g><path style="opacity:1" fill="#fecc6b" d="M 115.5,286.5 C 147.468,294.018 166.635,314.018 173,346.5C 173.5,388.165 173.667,429.832 173.5,471.5C 131.833,471.5 90.1667,471.5 48.5,471.5C 48.3333,429.165 48.5,386.832 49,344.5C 57.3901,309.271 79.5568,289.938 115.5,286.5 Z"/></g>
<g><path style="opacity:1" fill="#c9effe" d="M 436.5,286.5 C 438.475,287.646 439.975,289.313 441,291.5C 441.667,338.5 441.667,385.5 441,432.5C 439.975,434.687 438.475,436.354 436.5,437.5C 369.166,437.667 301.833,437.5 234.5,437C 232.448,436.07 230.948,434.57 230,432.5C 229.333,385.5 229.333,338.5 230,291.5C 230.833,289.333 232.333,287.833 234.5,287C 301.833,286.5 369.166,286.333 436.5,286.5 Z"/></g>
<g><path style="opacity:1" fill="#9ae6fc" d="M 436.5,286.5 C 443.841,286.334 451.174,286.5 458.5,287C 460.333,287.5 461.5,288.667 462,290.5C 462.667,338.167 462.667,385.833 462,433.5C 460.833,434.667 459.667,435.833 458.5,437C 451.174,437.5 443.841,437.666 436.5,437.5C 438.475,436.354 439.975,434.687 441,432.5C 441.667,385.5 441.667,338.5 441,291.5C 439.975,289.313 438.475,287.646 436.5,286.5 Z"/></g>
<g><path style="opacity:1" fill="#fec145" d="M 115.5,286.5 C 155.372,288.021 179.205,308.354 187,347.5C 187.5,389.165 187.667,430.832 187.5,472.5C 141.167,472.5 94.8333,472.5 48.5,472.5C 48.5,472.167 48.5,471.833 48.5,471.5C 90.1667,471.5 131.833,471.5 173.5,471.5C 173.667,429.832 173.5,388.165 173,346.5C 166.635,314.018 147.468,294.018 115.5,286.5 Z"/></g>
<g><path style="opacity:1" fill="#66dcfc" d="M 423.5,309.5 C 432.61,309.772 435.443,314.105 432,322.5C 417.087,343.325 402.42,364.325 388,385.5C 384.832,389.533 380.999,390.367 376.5,388C 373.231,384.547 372.731,380.714 375,376.5C 390.675,353.682 406.841,331.349 423.5,309.5 Z"/></g>
<g><path style="opacity:1" fill="#66dcfc" d="M 390.5,317.5 C 398.709,316.872 402.209,320.539 401,328.5C 394.11,339.112 386.61,349.278 378.5,359C 370.333,360.167 366.833,356.667 368,348.5C 375.02,337.783 382.52,327.45 390.5,317.5 Z"/></g>
<g><path style="opacity:1" fill="#caeffc" d="M 156.5,375.5 C 160.426,375.047 163.592,376.38 166,379.5C 166.667,386.167 166.667,392.833 166,399.5C 163.442,403.212 159.942,404.378 155.5,403C 153.951,401.786 152.785,400.286 152,398.5C 151.333,392.5 151.333,386.5 152,380.5C 153.025,378.313 154.525,376.646 156.5,375.5 Z"/></g>
<g><path style="opacity:0.988" fill="#e858aa" d="M 13.5,472.5 C 25.1667,472.5 36.8333,472.5 48.5,472.5C 94.8333,472.5 141.167,472.5 187.5,472.5C 283.167,472.5 378.833,472.5 474.5,472.5C 477.833,472.5 481.167,472.5 484.5,472.5C 485.172,473.267 486.005,473.934 487,474.5C 487.667,485.833 487.667,497.167 487,508.5C 485.955,509.373 485.122,510.373 484.5,511.5C 323.833,511.5 163.167,511.5 2.5,511.5C 1.70951,510.599 0.709515,509.932 -0.5,509.5C -0.5,497.833 -0.5,486.167 -0.5,474.5C 3.86624,472.629 8.5329,471.962 13.5,472.5 Z"/></g>
<g><path style="opacity:1" fill="#e23d9d" d="M 484.5,472.5 C 488.833,472.5 493.167,472.5 497.5,472.5C 502.467,471.962 507.134,472.629 511.5,474.5C 511.5,486.167 511.5,497.833 511.5,509.5C 510.29,509.932 509.29,510.599 508.5,511.5C 500.5,511.5 492.5,511.5 484.5,511.5C 485.122,510.373 485.955,509.373 487,508.5C 487.667,497.167 487.667,485.833 487,474.5C 486.005,473.934 485.172,473.267 484.5,472.5 Z"/></g>
</svg>
